<svg width="1600" height="900" viewBox="0 0 1600 900" fill="none" xmlns="http://www.w3.org/2000/svg">
  <rect width="1600" height="900" fill="#F7F1E8"/>
  <rect x="40" y="40" width="1520" height="820" fill="#FBF7F0" stroke="#D9D1C6"/>

  <text x="80" y="110" fill="#191614" font-family="Arial, sans-serif" font-size="44" font-weight="700">
    Shared Supabase + Stripe + Edge Functions Architecture
  </text>
  <text x="80" y="152" fill="#6B655D" font-family="Arial, sans-serif" font-size="24">
    Case study system diagram for a multi-surface SaaS backend with secure service boundaries.
  </text>

  <rect x="90" y="220" width="250" height="120" fill="#FBF7F0" stroke="#191614" stroke-width="2"/>
  <text x="120" y="270" fill="#191614" font-family="Arial, sans-serif" font-size="28" font-weight="700">Freelancer</text>
  <text x="120" y="310" fill="#6B655D" font-family="Arial, sans-serif" font-size="20">Workspace owner</text>

  <rect x="90" y="390" width="250" height="120" fill="#FBF7F0" stroke="#191614" stroke-width="2"/>
  <text x="120" y="440" fill="#191614" font-family="Arial, sans-serif" font-size="28" font-weight="700">Client</text>
  <text x="120" y="480" fill="#6B655D" font-family="Arial, sans-serif" font-size="20">Portal reviewer</text>

  <rect x="90" y="560" width="250" height="120" fill="#FBF7F0" stroke="#191614" stroke-width="2"/>
  <text x="120" y="610" fill="#191614" font-family="Arial, sans-serif" font-size="28" font-weight="700">Admin</text>
  <text x="120" y="650" fill="#6B655D" font-family="Arial, sans-serif" font-size="20">Internal visibility</text>

  <rect x="430" y="220" width="360" height="460" fill="#FBF7F0" stroke="#191614" stroke-width="2"/>
  <text x="470" y="275" fill="#191614" font-family="Arial, sans-serif" font-size="34" font-weight="700">Next.js App</text>
  <text x="470" y="315" fill="#6B655D" font-family="Arial, sans-serif" font-size="22">Hosted on Vercel</text>

  <rect x="470" y="360" width="280" height="78" fill="#F7F1E8" stroke="#D9D1C6"/>
  <text x="495" y="405" fill="#191614" font-family="Arial, sans-serif" font-size="24" font-weight="700">Shared auth surfaces</text>

  <rect x="470" y="458" width="280" height="78" fill="#F7F1E8" stroke="#D9D1C6"/>
  <text x="495" y="503" fill="#191614" font-family="Arial, sans-serif" font-size="24" font-weight="700">Server actions + SSR</text>

  <rect x="470" y="556" width="280" height="78" fill="#F7F1E8" stroke="#D9D1C6"/>
  <text x="495" y="601" fill="#191614" font-family="Arial, sans-serif" font-size="24" font-weight="700">Plan-aware UI gating</text>

  <rect x="870" y="160" width="430" height="560" fill="#FBF7F0" stroke="#191614" stroke-width="2"/>
  <text x="910" y="220" fill="#191614" font-family="Arial, sans-serif" font-size="36" font-weight="700">Supabase</text>

  <rect x="920" y="270" width="330" height="78" fill="#F7F1E8" stroke="#D9D1C6"/>
  <text x="945" y="317" fill="#191614" font-family="Arial, sans-serif" font-size="24" font-weight="700">Auth</text>
  <text x="1035" y="317" fill="#6B655D" font-family="Arial, sans-serif" font-size="22">shared session model</text>

  <rect x="920" y="372" width="330" height="90" fill="#F7F1E8" stroke="#D9D1C6"/>
  <text x="945" y="418" fill="#191614" font-family="Arial, sans-serif" font-size="24" font-weight="700">Postgres + RLS</text>
  <text x="945" y="448" fill="#6B655D" font-family="Arial, sans-serif" font-size="20">workspace, client, project, subscription graph</text>

  <rect x="920" y="486" width="330" height="90" fill="#F7F1E8" stroke="#D9D1C6"/>
  <text x="945" y="532" fill="#191614" font-family="Arial, sans-serif" font-size="24" font-weight="700">Edge Functions</text>
  <text x="945" y="562" fill="#6B655D" font-family="Arial, sans-serif" font-size="20">Stripe orchestration + AI provider proxy</text>

  <rect x="920" y="600" width="330" height="78" fill="#F7F1E8" stroke="#D9D1C6"/>
  <text x="945" y="645" fill="#191614" font-family="Arial, sans-serif" font-size="24" font-weight="700">Realtime</text>
  <text x="1045" y="645" fill="#6B655D" font-family="Arial, sans-serif" font-size="22">activity feed updates</text>

  <rect x="1330" y="230" width="180" height="120" fill="#E87237" stroke="#C95E28" stroke-width="2"/>
  <text x="1368" y="280" fill="white" font-family="Arial, sans-serif" font-size="28" font-weight="700">Stripe</text>
  <text x="1368" y="318" fill="white" font-family="Arial, sans-serif" font-size="18">Checkout + webhooks</text>

  <rect x="1330" y="470" width="180" height="120" fill="#1F3D5C" stroke="#173046" stroke-width="2"/>
  <text x="1360" y="520" fill="white" font-family="Arial, sans-serif" font-size="28" font-weight="700">AI Provider</text>
  <text x="1371" y="558" fill="white" font-family="Arial, sans-serif" font-size="18">Gemini / Anthropic</text>

  <line x1="340" y1="280" x2="430" y2="280" stroke="#191614" stroke-width="3"/>
  <line x1="340" y1="450" x2="430" y2="450" stroke="#191614" stroke-width="3"/>
  <line x1="340" y1="620" x2="430" y2="620" stroke="#191614" stroke-width="3"/>

  <line x1="790" y1="450" x2="870" y2="450" stroke="#191614" stroke-width="3"/>
  <line x1="1250" y1="310" x2="1330" y2="290" stroke="#E87237" stroke-width="3"/>
  <line x1="1250" y1="530" x2="1330" y2="530" stroke="#1F3D5C" stroke-width="3"/>

  <line x1="1330" y1="332" x2="1250" y2="360" stroke="#E87237" stroke-width="3"/>
  <line x1="1330" y1="530" x2="1250" y2="560" stroke="#1F3D5C" stroke-width="3"/>

  <polygon points="430,280 414,272 414,288" fill="#191614"/>
  <polygon points="430,450 414,442 414,458" fill="#191614"/>
  <polygon points="430,620 414,612 414,628" fill="#191614"/>
  <polygon points="870,450 854,442 854,458" fill="#191614"/>
  <polygon points="1330,290 1314,282 1314,298" fill="#E87237"/>
  <polygon points="1330,530 1314,522 1314,538" fill="#1F3D5C"/>
  <polygon points="1250,360 1266,352 1266,368" fill="#E87237"/>
  <polygon points="1250,560 1266,552 1266,568" fill="#1F3D5C"/>

  <text x="80" y="802" fill="#6B655D" font-family="Arial, sans-serif" font-size="20">
    Key point: browser clients never talk to Stripe or the AI provider directly. Secrets stay behind Supabase Edge Functions.
  </text>
</svg>
